<svg xmlns="http://www.w3.org/2000/svg" width="117.705" height="84.324" viewBox="0 0 117.705 84.324">
  <g id="LOGO" transform="translate(-85.95 -38.711)">
    <g id="ubrab" transform="translate(85.95 86.623)">
      <path id="graab" d="M941.4-138.08a.606.606,0,0,1,.6-.651h4.13a.607.607,0,0,1,.594.52,3.266,3.266,0,0,0,3.65,2.714,3.338,3.338,0,0,0,2.832-3.348v-2.488a9.193,9.193,0,0,1-4.557.856,9.292,9.292,0,0,1-8.6-8.978,9.242,9.242,0,0,1,9.531-9.462,9.375,9.375,0,0,1,8.932,9.446v10.529a8.71,8.71,0,0,1-8.241,8.776c-.111,0-.221.006-.331.006A8.584,8.584,0,0,1,941.4-138.08Zm3.963-11.608a3.928,3.928,0,0,0,3.923,3.923,3.927,3.927,0,0,0,3.923-3.923,3.927,3.927,0,0,0-3.923-3.923A3.928,3.928,0,0,0,945.361-149.689ZM1025-140.356a9.375,9.375,0,0,1-8.931-9.445v-15.668a.6.6,0,0,1,.6-.6h4.106a.6.6,0,0,1,.6.6v7.529a9.184,9.184,0,0,1,4.559-.856,9.292,9.292,0,0,1,8.594,8.979,9.243,9.243,0,0,1-9.23,9.465C1025.2-140.351,1025.1-140.353,1025-140.356Zm-3.621-9.228a3.927,3.927,0,0,0,3.922,3.923,3.927,3.927,0,0,0,3.923-3.923,3.927,3.927,0,0,0-3.923-3.922A3.927,3.927,0,0,0,1021.374-149.584Zm-26.927-.542a9.262,9.262,0,0,1,9.25-9.25,9.183,9.183,0,0,1,3.931.889v-.37a.518.518,0,0,1,.518-.519h4.283a.519.519,0,0,1,.519.519v17.44a.519.519,0,0,1-.519.519h-4.283a.519.519,0,0,1-.518-.519v-.345a9.183,9.183,0,0,1-3.931.889A9.262,9.262,0,0,1,994.447-150.127Zm5.321,0a3.935,3.935,0,0,0,3.93,3.931,3.935,3.935,0,0,0,3.931-3.931,3.935,3.935,0,0,0-3.931-3.931A3.935,3.935,0,0,0,999.768-150.126Zm-26.44,0a9.262,9.262,0,0,1,9.25-9.25,9.181,9.181,0,0,1,3.931.889v-.37a.518.518,0,0,1,.518-.519h4.283a.518.518,0,0,1,.519.519v17.44a.519.519,0,0,1-.519.519h-4.283a.519.519,0,0,1-.518-.519v-.345a9.181,9.181,0,0,1-3.931.889A9.262,9.262,0,0,1,973.328-150.127Zm5.321,0a3.935,3.935,0,0,0,3.93,3.931,3.935,3.935,0,0,0,3.931-3.931,3.935,3.935,0,0,0-3.931-3.931A3.935,3.935,0,0,0,978.648-150.126Zm-17.31,9.246a.6.6,0,0,1-.6-.6v-16.79a.6.6,0,0,1,.6-.6h4.194a.6.6,0,0,1,.6.6v2.6a4.42,4.42,0,0,1,2.033-2.645,6.355,6.355,0,0,1,2.7-.887.606.606,0,0,1,.661.6v4.817a.6.6,0,0,1-.635.6,5.361,5.361,0,0,0-3.053.737,3.636,3.636,0,0,0-1.709,3.437v7.531a.6.6,0,0,1-.6.6Z" transform="translate(-917.326 166.071)" fill="#ca53d5" stroke="rgba(0,0,0,0)" stroke-width="1"/>
      <path id="U" d="M200.379,366.559a10.418,10.418,0,0,1-9.857-10.5v-7.028a.436.436,0,0,1,.436-.436h4.2a.436.436,0,0,1,.436.436v7.1a5.3,5.3,0,0,0,4.825,5.35,5.185,5.185,0,0,0,5.534-5.168v-7.28a.436.436,0,0,1,.436-.436h4.2a.436.436,0,0,1,.436.436v7.28A10.264,10.264,0,0,1,200.379,366.559Z" transform="translate(-190.522 -341.376)" fill="#ca53d5"/>
    </g>
    <path id="LOGO-2" data-name="LOGO" d="M1131.258,86.849a.685.685,0,0,1-.685-.686V45.248a.685.685,0,0,1,.685-.686h40.915a.686.686,0,0,1,.686.686V86.163a.686.686,0,0,1-.686.686Zm4.388-5.073h32.141V49.635h-32.141Zm15.675-7.094a10.418,10.418,0,0,1-9.857-10.5V57.158a.437.437,0,0,1,.436-.436h4.2a.436.436,0,0,1,.436.436v7.1a5.3,5.3,0,0,0,4.826,5.351,5.186,5.186,0,0,0,5.534-5.168V57.158a.436.436,0,0,1,.436-.436h4.2a.436.436,0,0,1,.436.436v7.279a10.265,10.265,0,0,1-10.253,10.253C1151.584,74.69,1151.453,74.688,1151.32,74.683Z" transform="translate(-1007.164 -5.352)" fill="#ca53d5" stroke="rgba(0,0,0,0)" stroke-width="1"/>
  </g>
</svg>
